<?xml version="1.0" encoding="utf-8"?>
<svg id="svg2" viewBox="0 0 500 670" xmlns="http://www.w3.org/2000/svg">
  <desc>Source: openclipart.org/detail/209545</desc>
  <defs/>
  <path id="path222" style="fill: rgb(255, 255, 255);" d="M 96.878 426.786 C 107.111 427.17 114.523 430.224 119.203 435.826 C 123.89 440.512 124.836 445.341 122.023 450.497 C 119.203 454.714 113.665 456.83 105.235 456.83 C 97.283 456.354 90.329 454.254 84.236 450.497 C 78.706 446.769 77.519 441.847 80.814 435.826 C 84.472 429.734 89.869 426.786 96.878 426.786 Z"/>
  <desc>Created with Fabric.js 5.2.4</desc>
  <g transform="matrix(1, 0, 0, 1, 596.750741, 275.581028)" id="64523c4d-0f41-4ff6-8397-2ba05e57c73f">
    <rect style="stroke: none; stroke-width: 1; stroke-dasharray: none; stroke-linecap: butt; stroke-dashoffset: 0; stroke-linejoin: miter; stroke-miterlimit: 4; fill: rgb(255,255,255); fill-rule: nonzero; opacity: 1; visibility: hidden;" vector-effect="non-scaling-stroke" x="-540" y="-540" rx="0" ry="0" width="1080" height="1080"/>
  </g>
  <g transform="matrix(1, 0, 0, 1, 596.750741, 275.581028)" id="24c7536d-3650-4ff6-92ac-5b2b4be3afb2"/>
  <g transform="matrix(1.603081, 0, 0, 1.603081, 312.149236, 582.408273)" style="">
    <g style="" vector-effect="non-scaling-stroke">
      <g transform="matrix(0.07 0 0 -0.07 0 0)">
        <path style="stroke: none; stroke-width: 1; stroke-dasharray: none; stroke-linecap: butt; stroke-dashoffset: 0; stroke-linejoin: miter; stroke-miterlimit: 4; fill: rgb(0,0,0); fill-rule: nonzero; opacity: 1;" vector-effect="non-scaling-stroke" transform=" translate(-4564.55, -7307.46)" d="M 3894 11581 C 3852 11562 3807 11535 3795 11523 C 3767 11495 3713 11492 3730 11520 C 3747 11548 3718 11545 3543 11501 C 3459 11480 3337 11457 3271 11449 C 3206 11441 3054 11404 2934 11367 C 2813 11330 2700 11300 2682 11300 C 2604 11299 2270 11109 2223 11040 C 2165 10953 2171 10809 2236 10682 C 2260 10636 2280 10590 2280 10578 C 2280 10567 2312 10515 2352 10464 C 2407 10391 2421 10358 2412 10314 C 2405 10280 2408 10263 2420 10270 C 2431 10277 2440 10269 2440 10252 C 2440 10236 2430 10216 2418 10209 C 2379 10185 2411 10029 2488 9867 C 2546 9746 2561 9691 2557 9617 C 2554 9552 2563 9510 2585 9485 C 2641 9423 2661 9340 2680 9082 C 2726 8446 2749 8311 2833 8188 C 2862 8145 2902 8043 2922 7962 C 2997 7656 3166 7565 3589 7605 C 3678 7613 3993 7110 3947 7034 C 3939 7021 3893 6962 3845 6903 C 3683 6704 3564 6381 3288 5390 C 3234 5197 3233 5176 3237 4770 C 3241 4455 3232 4260 3202 3990 C 3160 3613 3120 3159 3120 3059 L 3120 3000 L 5033 3000 L 6946 3000 L 6932 3485 C 6925 3751 6900 4145 6878 4360 C 6857 4574 6830 4854 6819 4980 C 6755 5725 6579 6252 6205 6820 C 5998 7133 5876 7334 5773 7530 C 5716 7639 5676 7686 5596 7740 C 5422 7858 5202 8079 5181 8157 C 5115 8396 5091 8660 5130 8725 C 5161 8777 5169 8836 5173 9030 C 5176 9162 5183 9338 5189 9420 C 5197 9513 5192 9596 5177 9640 C 5151 9718 5130 9986 5110 10490 C 5102 10677 5088 10835 5078 10841 C 5068 10847 5057 10901 5053 10960 C 5048 11051 5037 11075 4986 11119 C 4952 11147 4919 11189 4912 11213 C 4888 11292 4597 11459 4550 11420 C 4515 11391 4398 11452 4414 11492 C 4423 11516 4414 11519 4373 11509 C 4335 11499 4320 11504 4320 11523 C 4318 11609 4036 11648 3894 11581 z M 4073 11390 C 4055 11376 4040 11360 4040 11353 C 4040 11332 4117 11338 4130 11360 C 4147 11388 4205 11385 4196 11357 C 4191 11344 4158 11317 4121 11298 L 4053 11262 L 4109 11240 C 4157 11222 4170 11225 4195 11261 C 4233 11315 4333 11309 4324 11253 C 4318 11222 4326 11218 4379 11230 C 4431 11241 4438 11238 4427 11209 C 4415 11178 4424 11175 4509 11185 C 4568 11191 4595 11189 4578 11178 C 4557 11165 4561 11161 4594 11160 C 4618 11160 4645 11148 4654 11134 C 4663 11119 4698 11087 4733 11062 C 4780 11027 4798 10996 4807 10932 C 4813 10886 4824 10833 4831 10815 C 4841 10789 4834 10783 4804 10789 C 4782 10794 4747 10784 4727 10769 C 4707 10754 4701 10741 4714 10741 C 4727 10740 4743 10749 4751 10761 C 4760 10776 4772 10775 4790 10760 C 4804 10748 4828 10741 4842 10744 C 4858 10748 4872 10729 4877 10700 C 4881 10673 4894 10644 4906 10637 C 4921 10627 4921 10615 4906 10597 C 4863 10543 4864 10422 4908 10416 C 4945 10410 4946 10408 4913 10375 C 4884 10347 4881 10328 4897 10272 C 4907 10234 4913 10200 4910 10196 C 4890 10176 4880 9980 4899 9980 C 4943 9980 4917 9927 4855 9891 C 4819 9870 4781 9840 4769 9825 C 4735 9780 4540 9890 4540 9954 C 4540 9999 4543 10000 4572 9970 C 4590 9953 4610 9943 4616 9949 C 4632 9965 4592 10002 4553 10008 C 4494 10016 4342 10145 4322 10203 C 4311 10235 4279 10269 4251 10280 C 4223 10290 4200 10304 4200 10311 C 4200 10317 4208 10317 4218 10311 C 4228 10305 4241 10314 4248 10331 C 4254 10348 4251 10357 4242 10351 C 4211 10332 4162 10362 4173 10392 C 4179 10407 4173 10420 4160 10420 C 4144 10420 4139 10399 4144 10361 C 4149 10329 4145 10307 4136 10312 C 4113 10327 4116 10265 4141 10219 C 4167 10169 4130 10166 4102 10215 C 4083 10247 4081 10247 4081 10217 C 4080 10198 4069 10179 4055 10174 C 4039 10168 4045 10159 4070 10149 C 4092 10140 4131 10119 4157 10103 C 4183 10086 4224 10072 4248 10071 C 4462 10062 4711 9342 4596 9064 C 4584 9035 4571 9003 4569 8995 C 4567 8987 4563 8978 4561 8975 C 4546 8958 4546 8860 4560 8805 C 4570 8768 4569 8736 4558 8729 C 4531 8712 4536 8639 4564 8645 C 4579 8648 4591 8616 4595 8558 C 4600 8487 4595 8467 4572 8467 C 4541 8467 4522 8496 4501 8575 C 4499 8583 4490 8572 4481 8550 C 4469 8523 4476 8489 4500 8447 L 4537 8383 L 4488 8392 C 4441 8401 4422 8374 4459 8351 C 4470 8344 4473 8326 4467 8309 C 4461 8293 4466 8280 4478 8280 C 4490 8280 4500 8270 4500 8259 C 4500 8247 4491 8243 4480 8250 C 4469 8257 4460 8253 4460 8240 C 4460 8225 4449 8225 4423 8239 C 4374 8265 4360 8248 4360 8167 C 4360 8053 4272 8086 4242 8211 C 4226 8280 4222 8285 4209 8245 C 4202 8220 4187 8200 4178 8200 C 4150 8200 4157 8147 4189 8121 C 4205 8108 4213 8084 4207 8069 C 4199 8049 4210 8040 4238 8040 C 4261 8040 4280 8031 4280 8020 C 4280 8009 4270 8000 4259 8000 C 4247 8000 4243 7992 4249 7982 C 4268 7952 4182 7861 4146 7874 C 4127 7881 4104 7872 4088 7851 C 4060 7812 4020 7825 4020 7873 C 4020 7890 4009 7900 3996 7895 C 3971 7887 3931 7742 3948 7725 C 3959 7714 4118 7798 4156 7835 C 4171 7849 4191 7860 4201 7860 C 4232 7860 4223 7824 4185 7796 C 4148 7769 4129 7720 4156 7720 C 4164 7720 4185 7736 4202 7755 C 4257 7816 4398 7940 4414 7941 C 4431 7942 4520 8073 4520 8097 C 4520 8105 4459 8055 4385 7986 C 4311 7917 4243 7860 4235 7860 C 4207 7860 4220 7898 4256 7924 C 4276 7938 4299 7966 4306 7986 C 4314 8006 4328 8017 4339 8011 C 4349 8004 4377 8025 4401 8057 C 4425 8089 4465 8126 4490 8140 C 4515 8153 4547 8185 4560 8211 C 4574 8236 4601 8261 4620 8266 C 4670 8279 4713 8360 4671 8360 C 4654 8360 4640 8364 4640 8368 C 4640 8394 4667 8440 4682 8440 C 4691 8440 4694 8427 4687 8410 C 4675 8377 4681 8374 4725 8391 C 4743 8398 4751 8420 4745 8451 C 4739 8483 4746 8504 4766 8511 C 4789 8520 4793 8536 4780 8577 C 4740 8705 4739 8785 4779 8775 C 4818 8764 4818 8768 4763 8930 C 4700 9121 4714 9807 4780 9701 C 4793 9679 4811 9686 4869 9736 C 4939 9798 5026 9820 5049 9781 C 5055 9771 5044 9751 5024 9736 C 4963 9693 4955 9661 4989 9609 C 5028 9549 5045 9401 5012 9398 C 4997 9397 4997 9394 5013 9387 C 5038 9377 5024 9301 4981 9223 C 4966 9195 4966 9180 4979 9180 C 4991 9180 5000 9193 5000 9208 C 5000 9238 5049 9265 5068 9245 C 5075 9239 5067 9212 5050 9187 C 5034 9161 5004 9116 4985 9087 L 4951 9033 L 5006 9069 C 5081 9118 5090 9100 5051 8982 C 5032 8926 5023 8872 5029 8861 C 5036 8850 5031 8820 5017 8795 C 4973 8713 4923 8492 4943 8467 C 4954 8454 4957 8412 4949 8374 C 4941 8330 4945 8299 4959 8290 C 4975 8280 4971 8267 4946 8247 C 4926 8230 4919 8221 4930 8226 C 4941 8231 4967 8218 4988 8197 C 5010 8177 5019 8160 5008 8160 C 4998 8160 4988 8114 4985 8059 C 4982 7995 4987 7962 5000 7970 C 5011 7977 5020 7971 5020 7956 C 5021 7937 5026 7938 5040 7960 C 5052 7979 5060 7981 5060 7966 C 5060 7929 4986 7894 4974 7925 C 4968 7943 4951 7937 4918 7908 C 4891 7884 4814 7840 4745 7810 C 4677 7780 4626 7747 4632 7737 C 4642 7721 4612 7711 4573 7718 C 4563 7720 4560 7708 4567 7692 C 4574 7672 4569 7666 4551 7672 C 4536 7678 4518 7673 4511 7661 C 4503 7649 4489 7644 4479 7650 C 4469 7657 4450 7643 4436 7621 C 4422 7598 4399 7580 4384 7580 C 4370 7580 4363 7589 4370 7600 C 4377 7611 4373 7620 4361 7620 C 4348 7620 4344 7600 4352 7570 C 4367 7511 4356 7507 4309 7554 C 4277 7586 4276 7586 4288 7546 C 4296 7521 4292 7497 4278 7489 C 4263 7479 4259 7482 4268 7497 C 4277 7511 4271 7515 4251 7508 C 4234 7501 4226 7486 4233 7475 C 4241 7463 4237 7460 4224 7468 C 4212 7475 4207 7496 4214 7514 C 4222 7535 4219 7542 4205 7533 C 4179 7517 4096 7598 4112 7623 C 4118 7632 4140 7631 4161 7619 C 4183 7608 4199 7605 4198 7614 C 4192 7652 4202 7680 4222 7680 C 4236 7680 4241 7656 4236 7620 C 4227 7561 4228 7561 4263 7599 C 4296 7635 4318 7685 4287 7654 C 4280 7646 4263 7655 4250 7673 C 4234 7695 4217 7700 4198 7689 C 4183 7679 4161 7670 4150 7669 C 4139 7667 4119 7665 4105 7663 C 4077 7660 4070 7580 4097 7580 C 4107 7580 4112 7557 4109 7530 C 4106 7502 4112 7485 4122 7491 C 4132 7498 4135 7513 4127 7524 C 4119 7537 4123 7540 4137 7532 C 4174 7509 4164 7485 4101 7447 C 4069 7428 4048 7403 4055 7391 C 4062 7380 4053 7382 4036 7396 C 4014 7413 4007 7442 4013 7483 C 4019 7520 4015 7539 4004 7532 C 3993 7526 3979 7535 3972 7552 C 3964 7572 3947 7579 3928 7572 C 3905 7563 3899 7568 3907 7590 C 3913 7606 3912 7619 3904 7617 C 3833 7607 3813 7669 3881 7690 C 3919 7702 3920 7707 3893 7748 C 3874 7777 3870 7803 3881 7822 C 3891 7837 3898 7877 3897 7910 C 3896 7951 3892 7958 3885 7931 C 3880 7909 3863 7873 3849 7851 C 3823 7811 3820 7802 3820 7760 C 3820 7749 3807 7740 3790 7740 C 3774 7740 3760 7750 3760 7762 C 3760 7778 3752 7779 3735 7764 C 3709 7742 3610 7803 3633 7827 C 3640 7833 3639 7853 3633 7870 C 3618 7908 3540 7876 3540 7831 C 3540 7816 3525 7799 3507 7792 C 3431 7763 3355 7836 3403 7893 C 3415 7908 3420 7927 3413 7933 C 3394 7953 3345 7903 3332 7850 C 3317 7789 3269 7803 3251 7874 C 3241 7914 3229 7922 3189 7915 C 3161 7910 3139 7915 3138 7928 C 3134 7990 3119 8028 3084 8067 C 2946 8218 2976 8368 3151 8407 C 3481 8479 3557 8471 3690 8349 C 3766 8279 3781 8255 3770 8218 C 3758 8183 3762 8176 3788 8186 C 3805 8193 3820 8190 3820 8179 C 3820 8169 3811 8160 3800 8160 C 3789 8160 3780 8149 3780 8137 C 3780 8124 3786 8119 3793 8126 C 3800 8134 3820 8128 3837 8115 C 3861 8095 3865 8095 3853 8115 C 3844 8129 3847 8140 3859 8140 C 3879 8140 3884 8130 3888 8075 C 3889 8061 3906 8038 3925 8024 C 3945 8009 3955 7989 3949 7979 C 3943 7968 3948 7960 3961 7960 C 3974 7960 3979 7974 3972 7993 C 3965 8010 3969 8037 3981 8052 C 3999 8073 3995 8077 3962 8070 C 3931 8064 3920 8073 3920 8101 C 3920 8125 3934 8140 3955 8140 C 3984 8141 3985 8144 3961 8159 C 3945 8169 3926 8174 3919 8170 C 3912 8165 3908 8182 3910 8206 C 3912 8230 3893 8275 3868 8306 C 3842 8337 3812 8397 3800 8440 C 3778 8522 3677 8640 3628 8640 C 3613 8640 3600 8651 3600 8665 C 3600 8681 3567 8691 3509 8693 C 3454 8694 3404 8709 3380 8730 C 3336 8770 3138 8764 3124 8723 C 3120 8710 3103 8700 3086 8700 C 3059 8700 3059 8706 3088 8749 C 3105 8776 3120 8812 3120 8829 C 3120 8848 3138 8860 3169 8860 C 3250 8860 3330 8898 3304 8924 C 3238 8990 3010 8914 3035 8835 C 3044 8808 3019 8819 2926 8883 C 2876 8917 2839 8933 2844 8919 C 2849 8904 2895 8863 2946 8828 L 3040 8763 L 2971 8720 C 2914 8685 2895 8656 2867 8555 L 2832 8431 L 2806 8495 C 2785 8547 2785 8577 2808 8664 C 2823 8722 2831 8788 2825 8810 C 2798 8918 2803 9058 2833 9046 C 2854 9038 2862 9046 2859 9072 C 2856 9093 2865 9137 2879 9170 C 2892 9203 2930 9304 2963 9394 L 3023 9558 L 2925 9661 C 2832 9757 2819 9764 2708 9774 C 2565 9786 2586 9763 2554 9951 C 2523 10137 2541 10299 2602 10377 C 2664 10456 2934 10571 2890 10500 C 2868 10464 2976 10479 3061 10523 C 3106 10546 3172 10572 3207 10579 C 3241 10586 3268 10600 3266 10611 C 3262 10634 3314 10666 3370 10675 C 3409 10681 3409 10681 3370 10652 C 3348 10637 3322 10629 3312 10635 C 3302 10641 3300 10636 3308 10624 C 3315 10612 3336 10607 3354 10614 C 3373 10622 3397 10612 3413 10590 C 3436 10558 3447 10557 3493 10578 C 3534 10596 3550 10597 3561 10578 C 3579 10549 3631 10634 3623 10680 C 3619 10705 3621 10705 3637 10682 C 3661 10647 3720 10668 3720 10711 C 3720 10728 3728 10737 3738 10731 C 3757 10719 3940 10782 3940 10800 C 3940 10807 3972 10808 4010 10804 C 4064 10797 4080 10803 4080 10828 C 4080 10846 4089 10860 4100 10860 C 4111 10860 4120 10869 4120 10880 C 4120 10892 4100 10891 4065 10878 C 4027 10864 4009 10864 4004 10879 C 3995 10906 3940 10907 3940 10880 C 3940 10869 3922 10860 3899 10860 C 3865 10860 3862 10866 3880 10900 C 3896 10929 3895 10940 3879 10940 C 3866 10940 3852 10922 3846 10900 C 3840 10878 3827 10860 3818 10860 C 3808 10860 3802 10867 3805 10875 C 3808 10883 3801 10895 3790 10900 C 3779 10906 3767 10890 3764 10866 C 3760 10838 3747 10826 3730 10833 C 3715 10839 3707 10856 3713 10872 C 3721 10892 3715 10897 3690 10887 C 3659 10875 3658 10879 3680 10922 L 3706 10970 L 3653 10920 C 3625 10893 3583 10854 3561 10835 C 3536 10814 3526 10788 3534 10768 C 3546 10737 3548 10737 3571 10768 C 3592 10797 3595 10795 3595 10749 C 3595 10709 3588 10701 3563 10712 C 3545 10721 3506 10728 3477 10729 C 3448 10729 3428 10737 3433 10745 C 3438 10753 3428 10760 3411 10760 C 3394 10760 3380 10769 3380 10780 C 3380 10792 3358 10786 3330 10768 C 3303 10750 3280 10742 3280 10751 C 3280 10759 3262 10750 3241 10731 C 3203 10696 3202 10697 3212 10749 C 3220 10795 3217 10799 3193 10776 C 3177 10762 3168 10744 3172 10736 C 3177 10729 3160 10717 3135 10709 C 3110 10701 3083 10685 3075 10672 C 3066 10658 3060 10660 3060 10680 C 3060 10704 3056 10705 3042 10683 C 3029 10662 3016 10661 2982 10679 C 2932 10706 2880 10686 2923 10656 C 2942 10643 2931 10640 2887 10647 C 2851 10654 2810 10647 2788 10631 C 2768 10617 2739 10609 2723 10616 C 2705 10622 2699 10618 2707 10605 C 2714 10594 2707 10579 2692 10573 C 2647 10556 2580 10582 2579 10617 C 2579 10640 2570 10635 2550 10600 C 2534 10573 2521 10556 2521 10563 C 2520 10571 2514 10592 2507 10612 C 2499 10632 2501 10642 2512 10635 C 2523 10628 2533 10641 2535 10663 C 2537 10695 2532 10698 2510 10680 C 2480 10655 2470 10669 2387 10844 C 2345 10934 2345 10937 2382 10934 C 2409 10932 2417 10921 2409 10896 C 2401 10870 2406 10863 2427 10872 C 2464 10886 2483 10956 2455 10973 C 2428 10990 2494 11040 2543 11040 C 2567 11040 2575 11030 2567 11010 C 2561 10994 2548 10985 2538 10991 C 2528 10997 2526 10988 2532 10971 C 2539 10954 2530 10918 2512 10891 C 2468 10824 2472 10780 2520 10780 C 2542 10780 2559 10787 2557 10795 C 2551 10833 2587 10940 2608 10940 C 2644 10940 2681 11040 2660 11081 C 2646 11106 2649 11119 2670 11127 C 2692 11136 2700 11124 2700 11084 C 2700 11012 2771 10962 2790 11021 C 2797 11042 2812 11060 2822 11060 C 2833 11060 2875 11082 2915 11110 C 2963 11142 2995 11153 3008 11140 C 3036 11112 3061 11115 3055 11145 C 3052 11161 3072 11169 3113 11167 C 3160 11165 3179 11174 3186 11202 C 3192 11223 3212 11240 3231 11240 C 3251 11240 3261 11234 3254 11227 C 3246 11220 3249 11203 3259 11191 C 3290 11154 3414 11180 3468 11234 C 3496 11261 3526 11279 3536 11272 C 3546 11266 3585 11270 3622 11281 C 3675 11296 3695 11294 3711 11271 C 3729 11247 3742 11250 3791 11291 C 3824 11317 3866 11339 3885 11339 C 3904 11340 3920 11349 3920 11360 C 3920 11371 3929 11380 3940 11380 C 3951 11380 3960 11371 3960 11360 C 3960 11349 3979 11321 4003 11297 L 4046 11254 L 4035 11312 C 4022 11378 4052 11448 4084 11428 C 4099 11418 4095 11406 4073 11390 z M 4677 9783 C 4684 9728 4652 9740 4618 9803 C 4600 9837 4602 9843 4633 9837 C 4654 9833 4673 9809 4677 9783 z M 2900 9585 C 2900 9576 2846 9555 2780 9538 C 2655 9505 2629 9516 2704 9569 C 2750 9601 2900 9613 2900 9585 z M 2900 9502 C 2839 9468 2705 9458 2749 9491 C 2770 9507 2820 9520 2859 9519 C 2908 9519 2921 9514 2900 9502 z M 2800 9397 C 2800 9385 2816 9363 2835 9349 C 2878 9317 2858 9292 2803 9309 C 2761 9322 2733 9372 2751 9402 C 2767 9428 2800 9424 2800 9397 z M 4676 8662 C 4668 8564 4630 8590 4629 8694 C 4628 8762 4633 8774 4655 8756 C 4671 8743 4680 8704 4676 8662 z M 3435 8546 C 3470 8529 3496 8509 3491 8501 C 3483 8489 3330 8487 3330 8499 C 3330 8501 3305 8506 3275 8510 C 3244 8514 3224 8509 3231 8499 C 3241 8482 3196 8470 3152 8479 C 3142 8481 3128 8473 3121 8462 C 3114 8450 3086 8439 3059 8435 C 3032 8432 3004 8421 2996 8411 C 2975 8381 2954 8454 2968 8510 C 2979 8552 2993 8560 3055 8562 C 3096 8563 3153 8571 3180 8580 C 3244 8599 3352 8585 3435 8546 z M 5310 7820 C 5303 7809 5278 7800 5254 7800 C 5230 7800 5197 7791 5180 7780 C 5158 7766 5178 7760 5250 7760 C 5356 7759 5421 7735 5382 7711 C 5354 7694 5353 7660 5381 7660 C 5393 7660 5396 7670 5389 7682 C 5381 7694 5399 7689 5428 7670 C 5456 7651 5480 7627 5480 7617 C 5480 7606 5489 7603 5500 7610 C 5511 7617 5520 7613 5520 7602 C 5520 7591 5547 7554 5580 7520 C 5614 7486 5636 7449 5629 7439 C 5623 7428 5630 7415 5646 7409 C 5662 7403 5686 7362 5700 7319 C 5715 7276 5734 7240 5743 7240 C 5752 7240 5760 7227 5760 7212 C 5760 7196 5783 7156 5810 7124 C 5838 7091 5860 7054 5860 7042 C 5860 7030 5867 7020 5876 7020 C 5907 7020 5962 6899 5951 6855 C 5945 6830 5946 6821 5952 6835 C 5968 6871 6001 6866 5987 6830 C 5981 6814 5986 6800 5999 6800 C 6012 6800 6017 6791 6010 6780 C 5999 6762 6025 6751 6065 6758 C 6073 6759 6080 6737 6080 6709 C 6080 6678 6088 6663 6101 6671 C 6113 6678 6121 6672 6119 6657 C 6109 6586 6121 6542 6148 6552 C 6183 6566 6209 6528 6177 6508 C 6162 6499 6159 6503 6170 6520 C 6181 6537 6178 6541 6163 6532 C 6135 6514 6152 6480 6189 6480 C 6203 6480 6220 6461 6226 6438 C 6233 6413 6247 6402 6260 6410 C 6274 6419 6280 6410 6276 6387 C 6272 6363 6280 6352 6300 6357 C 6316 6360 6323 6357 6315 6349 C 6307 6340 6318 6305 6340 6269 C 6374 6214 6376 6202 6352 6181 C 6329 6163 6319 6165 6302 6194 C 6284 6225 6281 6226 6281 6197 C 6280 6179 6294 6159 6310 6153 C 6327 6146 6340 6127 6340 6109 C 6340 6092 6349 6083 6361 6091 C 6375 6100 6375 6112 6360 6130 C 6346 6147 6345 6161 6358 6169 C 6369 6176 6388 6163 6400 6141 C 6415 6112 6415 6100 6400 6100 C 6379 6100 6379 6041 6400 6020 C 6434 5986 6516 5771 6534 5670 C 6539 5637 6557 5585 6574 5553 C 6604 5494 6601 5252 6569 5224 C 6560 5216 6559 5226 6566 5245 C 6573 5264 6574 5280 6569 5280 C 6550 5280 6480 5097 6480 5050 C 6480 5024 6472 4997 6462 4991 C 6452 4985 6437 4942 6429 4895 C 6422 4848 6409 4801 6401 4790 C 6377 4758 6359 4640 6378 4640 C 6400 4640 6428 4701 6422 4735 C 6420 4749 6426 4760 6436 4760 C 6445 4760 6452 4780 6452 4805 C 6451 4835 6461 4849 6483 4848 C 6510 4846 6513 4855 6498 4907 C 6488 4942 6480 4972 6480 4974 C 6480 4977 6493 4974 6509 4968 C 6525 4962 6533 4945 6527 4930 C 6522 4916 6527 4898 6539 4891 C 6565 4875 6566 4921 6541 4987 C 6519 5046 6534 5113 6573 5128 C 6589 5135 6597 5131 6590 5120 C 6583 5109 6586 5100 6597 5100 C 6608 5100 6622 5053 6630 4995 C 6651 4828 6661 4775 6674 4754 C 6681 4743 6676 4740 6663 4748 C 6650 4756 6640 4752 6640 4740 C 6640 4727 6629 4724 6615 4733 C 6596 4744 6597 4740 6616 4716 C 6658 4664 6640 4476 6590 4446 C 6568 4432 6560 4421 6572 4421 C 6600 4420 6600 4354 6572 4335 C 6558 4326 6563 4320 6585 4320 C 6604 4320 6620 4331 6620 4345 C 6621 4362 6627 4360 6640 4340 C 6655 4317 6660 4324 6661 4370 C 6664 4480 6693 4521 6704 4430 C 6724 4254 6700 3932 6660 3861 C 6651 3844 6652 3815 6663 3795 C 6673 3775 6675 3748 6667 3735 C 6658 3719 6664 3720 6686 3737 C 6722 3766 6734 3831 6700 3810 C 6689 3803 6680 3812 6680 3829 C 6680 3871 6715 3868 6727 3825 C 6760 3702 6759 3686 6711 3641 C 6685 3616 6654 3601 6643 3608 C 6618 3624 6560 3602 6560 3577 C 6560 3566 6576 3562 6596 3569 C 6625 3578 6631 3568 6631 3510 C 6631 3471 6623 3440 6612 3440 C 6600 3440 6601 3431 6614 3418 C 6642 3390 6686 3414 6667 3445 C 6659 3458 6652 3489 6651 3515 C 6648 3569 6689 3614 6709 3581 C 6717 3569 6712 3560 6700 3560 C 6688 3560 6684 3550 6691 3539 C 6699 3525 6714 3531 6731 3554 C 6754 3585 6757 3565 6754 3410 C 6750 3248 6746 3230 6710 3223 C 6688 3219 6661 3208 6651 3198 C 6621 3170 6595 3177 6607 3210 C 6622 3249 6592 3249 6560 3210 C 6534 3179 6469 3206 6489 3239 C 6494 3247 6485 3253 6469 3253 C 6453 3253 6440 3247 6440 3240 C 6440 3215 6342 3180 6330 3201 C 6309 3234 6281 3222 6293 3185 C 6303 3157 6299 3158 6273 3190 C 6255 3213 6241 3219 6241 3205 C 6240 3191 6222 3180 6200 3180 C 6160 3180 6153 3218 6190 3244 C 6201 3252 6189 3257 6165 3255 C 6140 3253 6120 3245 6120 3238 C 6120 3230 6104 3226 6085 3229 C 6066 3232 6043 3224 6035 3212 C 6027 3200 6020 3226 6020 3269 C 6020 3354 5988 3347 5977 3260 C 5972 3226 5959 3212 5937 3216 C 5918 3219 5897 3212 5890 3201 C 5874 3174 5746 3174 5730 3200 C 5723 3212 5707 3214 5694 3206 C 5652 3180 5314 3180 5282 3206 C 5259 3225 5256 3225 5267 3206 C 5292 3163 4967 3187 4935 3230 C 4927 3241 4920 3232 4920 3210 C 4919 3176 4916 3175 4898 3200 C 4882 3222 4874 3224 4867 3205 C 4859 3187 4849 3189 4825 3213 C 4795 3242 4791 3242 4778 3207 C 4769 3187 4762 3177 4761 3185 C 4761 3192 4739 3191 4713 3181 C 4681 3169 4657 3171 4643 3185 C 4626 3202 4620 3202 4620 3186 C 4620 3174 4602 3168 4580 3174 C 4558 3180 4545 3193 4551 3202 C 4557 3212 4554 3220 4543 3220 C 4532 3220 4520 3210 4516 3197 C 4510 3180 4495 3181 4459 3200 C 4412 3225 4411 3225 4440 3189 C 4469 3152 4468 3152 4422 3182 C 4373 3213 4365 3235 4359 3349 C 4354 3445 4358 3463 4382 3449 C 4398 3439 4398 3446 4383 3475 C 4371 3497 4367 3520 4374 3527 C 4381 3534 4376 3540 4364 3540 C 4332 3540 4313 3452 4327 3374 C 4339 3310 4339 3310 4311 3360 C 4296 3387 4288 3417 4294 3427 C 4300 3437 4293 3452 4278 3462 C 4255 3476 4255 3479 4277 3480 C 4296 3480 4299 3497 4289 3543 C 4279 3592 4281 3602 4303 3589 C 4325 3575 4326 3578 4304 3604 C 4286 3627 4285 3640 4300 3650 C 4314 3658 4318 3710 4311 3791 C 4304 3879 4308 3918 4323 3915 C 4335 3912 4350 3923 4355 3938 C 4361 3955 4356 3960 4343 3952 C 4329 3943 4320 3953 4320 3979 C 4320 4041 4280 4028 4277 3965 C 4273 3897 4265 3830 4251 3740 C 4245 3702 4236 3616 4230 3550 C 4207 3302 4152 3109 4104 3116 C 4081 3119 4042 3112 4018 3099 L 3974 3075 L 3988 3673 C 4001 4228 3995 4378 3948 4720 C 3932 4832 3916 4864 3823 4957 C 3703 5079 3638 5219 3626 5391 C 3615 5535 3594 5578 3572 5505 C 3558 5461 3555 5359 3565 5320 C 3570 5304 3581 5263 3590 5230 C 3599 5197 3650 5092 3703 4997 C 3756 4902 3800 4815 3800 4802 C 3800 4790 3810 4780 3822 4780 C 3834 4780 3839 4767 3833 4751 C 3827 4736 3839 4688 3859 4646 C 3902 4558 3933 4210 3900 4190 C 3889 4183 3880 4149 3880 4114 C 3879 4065 3875 4057 3860 4080 C 3848 4098 3840 4100 3840 4086 C 3840 4073 3849 4057 3860 4050 C 3872 4043 3875 4028 3868 4016 C 3861 4005 3866 3989 3879 3980 C 3927 3951 3912 3706 3859 3663 C 3828 3638 3821 3622 3837 3612 C 3851 3603 3860 3610 3860 3629 C 3860 3682 3895 3663 3903 3605 C 3913 3535 3902 3480 3879 3480 C 3843 3480 3781 3403 3806 3391 C 3824 3383 3824 3377 3805 3368 C 3768 3351 3775 3320 3815 3318 C 3847 3316 3847 3315 3814 3306 C 3785 3299 3783 3291 3801 3269 C 3819 3247 3817 3238 3791 3228 C 3773 3221 3762 3202 3768 3187 C 3781 3155 3778 3154 3710 3180 C 3681 3191 3662 3207 3667 3216 C 3673 3225 3669 3245 3658 3261 C 3643 3282 3640 3274 3644 3230 C 3650 3168 3616 3148 3565 3186 C 3548 3199 3540 3196 3540 3175 C 3540 3154 3525 3148 3490 3155 C 3463 3160 3440 3173 3440 3182 C 3440 3192 3429 3198 3416 3195 C 3400 3192 3394 3215 3398 3267 C 3402 3319 3393 3351 3371 3367 C 3330 3397 3318 3461 3346 3497 C 3369 3525 3327 3567 3296 3548 C 3288 3542 3286 3552 3292 3569 C 3299 3586 3313 3600 3323 3600 C 3334 3600 3337 3591 3330 3580 C 3323 3569 3326 3560 3336 3560 C 3347 3560 3355 3583 3355 3610 C 3355 3638 3347 3660 3336 3660 C 3326 3660 3323 3669 3330 3680 C 3337 3692 3353 3695 3364 3687 C 3377 3680 3380 3683 3373 3696 C 3365 3707 3368 3723 3380 3730 C 3406 3746 3406 3900 3380 3900 C 3369 3900 3360 3909 3360 3920 C 3360 3932 3380 3931 3415 3918 C 3459 3902 3465 3902 3445 3923 C 3431 3937 3419 3980 3417 4019 L 3415 4090 L 3400 4020 C 3387 3958 3385 3963 3383 4065 C 3381 4130 3389 4180 3400 4180 C 3411 4180 3420 4198 3420 4220 C 3420 4242 3411 4260 3401 4260 C 3390 4260 3387 4274 3393 4291 C 3410 4336 3462 4286 3453 4233 C 3448 4209 3452 4172 3461 4150 C 3477 4110 3477 4110 3480 4150 C 3488 4240 3476 4370 3459 4376 C 3420 4391 3486 4479 3533 4475 C 3582 4471 3600 4440 3553 4440 C 3525 4440 3522 4386 3547 4345 C 3556 4331 3557 4312 3551 4302 C 3545 4292 3560 4287 3585 4292 C 3610 4297 3619 4295 3605 4289 C 3591 4282 3580 4268 3580 4257 C 3580 4246 3589 4243 3600 4250 C 3611 4257 3629 4239 3640 4211 C 3664 4148 3711 4145 3742 4205 C 3761 4242 3760 4246 3738 4225 C 3724 4211 3698 4200 3681 4200 C 3655 4201 3654 4203 3679 4219 C 3702 4234 3703 4242 3681 4268 C 3667 4286 3660 4318 3666 4341 C 3674 4372 3671 4377 3653 4362 C 3619 4334 3581 4363 3590 4410 C 3594 4432 3598 4457 3598 4466 C 3599 4475 3610 4476 3623 4468 C 3638 4459 3641 4463 3632 4477 C 3624 4490 3609 4496 3600 4490 C 3591 4484 3577 4489 3570 4500 C 3563 4511 3549 4515 3539 4509 C 3528 4503 3509 4505 3495 4514 C 3481 4522 3462 4530 3451 4530 C 3441 4530 3433 4578 3433 4636 C 3434 4722 3429 4740 3405 4731 C 3383 4722 3378 4730 3386 4760 C 3392 4782 3386 4800 3374 4800 C 3362 4800 3370 4813 3391 4829 C 3427 4857 3428 4859 3394 4859 C 3338 4860 3359 5218 3428 5438 C 3444 5489 3462 5557 3470 5589 C 3480 5634 3487 5641 3501 5619 C 3512 5600 3515 5617 3507 5665 C 3494 5745 3527 5810 3567 5786 C 3581 5778 3580 5785 3565 5804 C 3540 5834 3551 5908 3577 5892 C 3584 5887 3591 5903 3592 5927 C 3595 5995 3694 6248 3705 6217 C 3711 6202 3715 6221 3715 6259 C 3714 6297 3724 6331 3737 6336 C 3750 6340 3760 6369 3760 6400 C 3760 6431 3769 6460 3779 6463 C 3790 6467 3801 6499 3804 6534 C 3806 6569 3815 6593 3824 6587 C 3833 6582 3840 6596 3840 6618 C 3840 6640 3849 6663 3860 6670 C 3872 6677 3876 6691 3870 6700 C 3850 6732 3943 6885 3968 6860 C 3980 6848 3991 6829 3993 6819 C 3994 6809 3996 6791 3998 6779 C 4006 6709 4147 6727 4170 6801 C 4178 6824 4189 6838 4195 6832 C 4209 6818 4305 6889 4407 6989 C 4448 7028 4490 7060 4500 7060 C 4511 7060 4520 7069 4520 7080 C 4520 7124 4469 7095 4387 7006 C 4340 6954 4296 6918 4289 6924 C 4282 6931 4251 6929 4220 6920 C 4178 6908 4160 6911 4152 6932 C 4146 6947 4129 6960 4114 6960 C 4071 6960 4033 7058 4062 7093 C 4081 7115 4079 7118 4053 7108 C 4035 7101 4020 7088 4020 7078 C 4020 7068 4011 7060 3999 7060 C 3962 7060 4017 7136 4148 7265 C 4342 7458 4800 7717 5068 7787 C 5132 7804 5189 7822 5195 7829 C 5216 7849 5323 7841 5310 7820 z M 3376 3321 C 3382 3304 3376 3300 3361 3310 C 3342 3321 3341 3315 3358 3284 C 3388 3228 3386 3222 3340 3226 C 3314 3227 3303 3239 3310 3256 C 3315 3271 3320 3301 3320 3323 C 3320 3366 3362 3365 3376 3321 z" stroke-linecap="round"/>
      </g>
      <g transform="matrix(0.07 0 0 -0.07 -68.6 -253.23)">
        <path style="stroke: none; stroke-width: 1; stroke-dasharray: none; stroke-linecap: butt; stroke-dashoffset: 0; stroke-linejoin: miter; stroke-miterlimit: 4; fill: rgb(0,0,0); fill-rule: nonzero; opacity: 1;" vector-effect="non-scaling-stroke" transform=" translate(-3535.53, -11105.87)" d="M 3500 11112 C 3500 11074 3554 11056 3567 11089 C 3579 11121 3564 11140 3527 11140 C 3512 11140 3500 11127 3500 11112 z" stroke-linecap="round"/>
      </g>
      <g transform="matrix(0.07 0 0 -0.07 -72.15 -237.97)">
        <path style="stroke: none; stroke-width: 1; stroke-dasharray: none; stroke-linecap: butt; stroke-dashoffset: 0; stroke-linejoin: miter; stroke-miterlimit: 4; fill: rgb(0,0,0); fill-rule: nonzero; opacity: 1;" vector-effect="non-scaling-stroke" transform=" translate(-3482.36, -10877.06)" d="M 3460 10904 C 3460 10878 3453 10862 3444 10867 C 3435 10873 3427 10860 3425 10838 C 3423 10805 3431 10808 3481 10858 C 3514 10890 3540 10924 3540 10933 C 3540 10943 3531 10937 3520 10920 C 3502 10893 3498 10893 3480 10920 C 3464 10944 3461 10941 3460 10904 z" stroke-linecap="round"/>
      </g>
      <g transform="matrix(0.07 0 0 -0.07 -18.5 -224.26)">
        <path style="stroke: none; stroke-width: 1; stroke-dasharray: none; stroke-linecap: butt; stroke-dashoffset: 0; stroke-linejoin: miter; stroke-miterlimit: 4; fill: rgb(0,0,0); fill-rule: nonzero; opacity: 1;" vector-effect="non-scaling-stroke" transform=" translate(-4287.1, -10671.42)" d="M 4135 10782 C 4132 10764 4154 10729 4184 10704 C 4213 10679 4244 10639 4251 10616 C 4260 10588 4269 10582 4279 10599 C 4290 10616 4310 10609 4350 10572 C 4380 10544 4413 10526 4423 10532 C 4456 10552 4440 10572 4370 10597 C 4303 10622 4274 10660 4324 10660 C 4337 10660 4314 10695 4273 10737 C 4194 10818 4146 10834 4135 10782 z" stroke-linecap="round"/>
      </g>
      <g transform="matrix(0.07 0 0 -0.07 -104.13 -191.65)">
        <path style="stroke: none; stroke-width: 1; stroke-dasharray: none; stroke-linecap: butt; stroke-dashoffset: 0; stroke-linejoin: miter; stroke-miterlimit: 4; fill: rgb(0,0,0); fill-rule: nonzero; opacity: 1;" vector-effect="non-scaling-stroke" transform=" translate(-3002.53, -10182.28)" d="M 2899 10177 C 2874 10132 2996 10136 3052 10182 C 3064 10192 3079 10195 3085 10188 C 3091 10182 3101 10186 3108 10197 C 3121 10218 3040 10215 3004 10193 C 2993 10185 2977 10188 2970 10200 C 2950 10232 2923 10224 2899 10177 z" stroke-linecap="round"/>
      </g>
      <g transform="matrix(0.07 0 0 -0.07 -66.47 -166.22)">
        <path style="stroke: none; stroke-width: 1; stroke-dasharray: none; stroke-linecap: butt; stroke-dashoffset: 0; stroke-linejoin: miter; stroke-miterlimit: 4; fill: rgb(0,0,0); fill-rule: nonzero; opacity: 1;" vector-effect="non-scaling-stroke" transform=" translate(-3567.51, -9800.76)" d="M 3572 10006 C 3567 10000 3568 9982 3575 9965 C 3584 9941 3575 9936 3533 9944 C 3504 9950 3480 9946 3480 9936 C 3480 9926 3471 9923 3461 9929 C 3437 9944 3264 9866 3205 9813 C 3159 9772 3144 9700 3181 9700 C 3193 9700 3197 9691 3190 9680 C 3183 9668 3169 9664 3160 9670 C 3124 9692 3128 9648 3165 9613 C 3203 9577 3204 9577 3189 9623 C 3175 9668 3176 9669 3214 9635 C 3235 9616 3275 9600 3302 9600 C 3328 9600 3341 9607 3330 9615 C 3159 9741 3681 9882 3905 9771 C 3981 9732 4000 9732 4000 9770 C 4000 9809 3908 9867 3869 9852 C 3852 9846 3843 9848 3849 9858 C 3855 9868 3834 9885 3803 9896 C 3772 9907 3724 9937 3698 9963 C 3653 10007 3594 10027 3572 10006 z" stroke-linecap="round"/>
      </g>
      <g transform="matrix(0.07 0 0 -0.07 -71.3 -155.44)">
        <path style="stroke: none; stroke-width: 1; stroke-dasharray: none; stroke-linecap: butt; stroke-dashoffset: 0; stroke-linejoin: miter; stroke-miterlimit: 4; fill: rgb(0,0,0); fill-rule: nonzero; opacity: 1;" vector-effect="non-scaling-stroke" transform=" translate(-3495.1, -9639)" d="M 3511 9687 C 3418 9636 3342 9560 3385 9560 C 3404 9560 3420 9569 3420 9580 C 3420 9591 3472 9626 3535 9659 C 3602 9693 3633 9718 3610 9718 C 3588 9718 3544 9704 3511 9687 z" stroke-linecap="round"/>
      </g>
      <g transform="matrix(0.07 0 0 -0.07 -41.75 -153.97)">
        <path style="stroke: none; stroke-width: 1; stroke-dasharray: none; stroke-linecap: butt; stroke-dashoffset: 0; stroke-linejoin: miter; stroke-miterlimit: 4; fill: rgb(0,0,0); fill-rule: nonzero; opacity: 1;" vector-effect="non-scaling-stroke" transform=" translate(-3938.36, -9616.98)" d="M 3852 9651 C 3860 9630 3878 9623 3903 9631 C 3945 9644 4006 9606 3989 9578 C 3983 9568 3986 9560 3997 9560 C 4044 9560 4034 9618 3984 9637 C 3866 9682 3840 9685 3852 9651 z" stroke-linecap="round"/>
      </g>
      <g transform="matrix(0.07 0 0 -0.07 -59.03 -146.28)">
        <path style="stroke: none; stroke-width: 1; stroke-dasharray: none; stroke-linecap: butt; stroke-dashoffset: 0; stroke-linejoin: miter; stroke-miterlimit: 4; fill: rgb(0,0,0); fill-rule: nonzero; opacity: 1;" vector-effect="non-scaling-stroke" transform=" translate(-3679.17, -9501.65)" d="M 3497 9601 C 3404 9550 3362 9419 3450 9453 C 3464 9458 3482 9453 3489 9441 C 3497 9429 3487 9420 3468 9420 C 3415 9420 3454 9393 3516 9387 C 3546 9384 3590 9378 3615 9372 C 3648 9365 3660 9371 3660 9396 C 3661 9425 3663 9426 3680 9400 C 3695 9377 3699 9376 3700 9397 C 3700 9415 3714 9421 3740 9414 C 3762 9408 3780 9412 3780 9422 C 3780 9432 3792 9440 3806 9440 C 3820 9440 3843 9451 3857 9465 C 3870 9478 3897 9490 3915 9490 C 3934 9490 3952 9505 3956 9524 C 3974 9616 3630 9674 3497 9601 z M 3640 9550 C 3663 9490 3752 9481 3791 9535 C 3821 9576 3847 9561 3829 9514 C 3818 9485 3763 9456 3710 9450 C 3699 9449 3652 9458 3606 9472 C 3560 9485 3517 9490 3511 9484 C 3505 9478 3500 9488 3500 9506 C 3500 9536 3571 9600 3605 9600 C 3614 9600 3630 9578 3640 9550 z" stroke-linecap="round"/>
      </g>
      <g transform="matrix(0.07 0 0 -0.07 22.46 -150.69)">
        <path style="stroke: none; stroke-width: 1; stroke-dasharray: none; stroke-linecap: butt; stroke-dashoffset: 0; stroke-linejoin: miter; stroke-miterlimit: 4; fill: rgb(0,0,0); fill-rule: nonzero; opacity: 1;" vector-effect="non-scaling-stroke" transform=" translate(-4901.47, -9567.76)" d="M 4893 9580 C 4851 9508 4857 9489 4908 9526 C 4929 9542 4941 9571 4937 9598 C 4930 9641 4928 9640 4893 9580 z" stroke-linecap="round"/>
      </g>
      <g transform="matrix(0.07 0 0 -0.07 23.41 -137.84)">
        <path style="stroke: none; stroke-width: 1; stroke-dasharray: none; stroke-linecap: butt; stroke-dashoffset: 0; stroke-linejoin: miter; stroke-miterlimit: 4; fill: rgb(0,0,0); fill-rule: nonzero; opacity: 1;" vector-effect="non-scaling-stroke" transform=" translate(-4915.63, -9375.02)" d="M 4847 9409 C 4840 9392 4838 9376 4843 9374 C 4847 9372 4878 9354 4913 9335 C 4969 9304 4977 9304 4988 9331 C 4994 9349 4991 9357 4980 9350 C 4969 9343 4950 9361 4937 9389 C 4911 9446 4865 9456 4847 9409 z" stroke-linecap="round"/>
      </g>
      <g transform="matrix(0.07 0 0 -0.07 -98.62 -126.83)">
        <path style="stroke: none; stroke-width: 1; stroke-dasharray: none; stroke-linecap: butt; stroke-dashoffset: 0; stroke-linejoin: miter; stroke-miterlimit: 4; fill: rgb(0,0,0); fill-rule: nonzero; opacity: 1;" vector-effect="non-scaling-stroke" transform=" translate(-3085.27, -9209.97)" d="M 3160 9382 C 3160 9370 3149 9362 3135 9365 C 3121 9368 3113 9358 3116 9343 C 3119 9328 3111 9303 3098 9288 C 3086 9273 3081 9246 3088 9227 C 3099 9200 3096 9198 3070 9220 C 3054 9234 3039 9260 3038 9277 C 3037 9304 3035 9305 3027 9280 C 3021 9264 3002 9219 2985 9181 C 2963 9132 2961 9110 2977 9104 C 2990 9100 3000 9077 3000 9053 C 3001 9018 3004 9016 3020 9040 C 3031 9057 3040 9061 3040 9050 C 3041 9039 3050 9046 3062 9065 C 3073 9084 3077 9109 3071 9119 C 3064 9129 3069 9143 3080 9150 C 3092 9157 3100 9156 3098 9146 C 3089 9093 3102 9032 3118 9057 C 3127 9071 3140 9083 3147 9082 C 3154 9081 3167 9080 3175 9080 C 3184 9080 3192 9136 3193 9205 C 3195 9274 3199 9342 3203 9358 C 3207 9373 3199 9389 3185 9394 C 3171 9399 3160 9394 3160 9382 z" stroke-linecap="round"/>
      </g>
      <g transform="matrix(0.07 0 0 -0.07 18.2 -123.87)">
        <path style="stroke: none; stroke-width: 1; stroke-dasharray: none; stroke-linecap: butt; stroke-dashoffset: 0; stroke-linejoin: miter; stroke-miterlimit: 4; fill: rgb(0,0,0); fill-rule: nonzero; opacity: 1;" vector-effect="non-scaling-stroke" transform=" translate(-4837.54, -9165.52)" d="M 4842 9209 C 4841 9186 4830 9158 4818 9146 C 4803 9131 4803 9120 4820 9110 C 4859 9086 4880 9127 4861 9190 C 4848 9234 4843 9239 4842 9209 z" stroke-linecap="round"/>
      </g>
      <g transform="matrix(0.07 0 0 -0.07 -79.29 -111.7)">
        <path style="stroke: none; stroke-width: 1; stroke-dasharray: none; stroke-linecap: butt; stroke-dashoffset: 0; stroke-linejoin: miter; stroke-miterlimit: 4; fill: rgb(0,0,0); fill-rule: nonzero; opacity: 1;" vector-effect="non-scaling-stroke" transform=" translate(-3375.26, -8982.94)" d="M 3328 9092 C 3334 9061 3351 9020 3367 9003 C 3400 8965 3391 8927 3334 8865 C 3288 8814 3325 8800 3386 8845 C 3426 8875 3456 9000 3423 9000 C 3410 9000 3400 9010 3400 9022 C 3400 9034 3381 9067 3359 9096 L 3318 9148 L 3328 9092 z" stroke-linecap="round"/>
      </g>
      <g transform="matrix(0.07 0 0 -0.07 -20.12 -85.7)">
        <path style="stroke: none; stroke-width: 1; stroke-dasharray: none; stroke-linecap: butt; stroke-dashoffset: 0; stroke-linejoin: miter; stroke-miterlimit: 4; fill: rgb(0,0,0); fill-rule: nonzero; opacity: 1;" vector-effect="non-scaling-stroke" transform=" translate(-4262.75, -8592.9)" d="M 4193 8730 C 4202 8706 4199 8698 4185 8707 C 4172 8715 4168 8705 4174 8680 C 4180 8658 4191 8640 4198 8640 C 4206 8640 4228 8606 4246 8565 C 4289 8472 4336 8409 4351 8425 C 4358 8431 4353 8453 4342 8473 C 4331 8493 4302 8557 4278 8614 C 4239 8712 4158 8819 4193 8730 z" stroke-linecap="round"/>
      </g>
      <g transform="matrix(0.07 0 0 -0.07 -16.25 -92.88)">
        <path style="stroke: none; stroke-width: 1; stroke-dasharray: none; stroke-linecap: butt; stroke-dashoffset: 0; stroke-linejoin: miter; stroke-miterlimit: 4; fill: rgb(0,0,0); fill-rule: nonzero; opacity: 1;" vector-effect="non-scaling-stroke" transform=" translate(-4320.85, -8700.63)" d="M 4280 8750 C 4280 8745 4298 8711 4320 8675 C 4362 8606 4379 8646 4339 8721 C 4321 8756 4280 8776 4280 8750 z" stroke-linecap="round"/>
      </g>
      <g transform="matrix(0.07 0 0 -0.07 -10.68 -82.45)">
        <path style="stroke: none; stroke-width: 1; stroke-dasharray: none; stroke-linecap: butt; stroke-dashoffset: 0; stroke-linejoin: miter; stroke-miterlimit: 4; fill: rgb(0,0,0); fill-rule: nonzero; opacity: 1;" vector-effect="non-scaling-stroke" transform=" translate(-4404.28, -8544.27)" d="M 4391 8538 C 4428 8467 4451 8474 4432 8549 C 4425 8577 4406 8600 4389 8600 C 4363 8600 4363 8592 4391 8538 z" stroke-linecap="round"/>
      </g>
      <g transform="matrix(0.07 0 0 -0.07 -30.92 -73.99)">
        <path style="stroke: none; stroke-width: 1; stroke-dasharray: none; stroke-linecap: butt; stroke-dashoffset: 0; stroke-linejoin: miter; stroke-miterlimit: 4; fill: rgb(0,0,0); fill-rule: nonzero; opacity: 1;" vector-effect="non-scaling-stroke" transform=" translate(-4100.78, -8417.35)" d="M 4025 8540 C 3991 8486 3994 8449 4034 8409 C 4053 8390 4071 8357 4074 8336 C 4083 8278 4140 8225 4140 8274 C 4140 8294 4146 8329 4152 8351 C 4160 8381 4150 8399 4116 8415 C 4082 8432 4079 8438 4104 8439 C 4122 8439 4143 8431 4150 8420 C 4169 8390 4200 8396 4200 8430 C 4200 8457 4173 8468 4106 8466 C 4090 8465 4088 8479 4100 8511 C 4115 8550 4095 8580 4053 8580 C 4051 8580 4038 8562 4025 8540 z" stroke-linecap="round"/>
      </g>
      <g transform="matrix(0.07 0 0 -0.07 -85.66 -58.5)">
        <path style="stroke: none; stroke-width: 1; stroke-dasharray: none; stroke-linecap: butt; stroke-dashoffset: 0; stroke-linejoin: miter; stroke-miterlimit: 4; fill: rgb(0,0,0); fill-rule: nonzero; opacity: 1;" vector-effect="non-scaling-stroke" transform=" translate(-3279.63, -8184.94)" d="M 3142 8259 C 3072 8228 3071 8226 3114 8204 C 3138 8191 3160 8160 3164 8135 C 3171 8081 3360 8057 3360 8110 C 3360 8136 3433 8173 3466 8163 C 3476 8161 3477 8169 3469 8182 C 3461 8195 3453 8223 3452 8244 C 3449 8297 3248 8306 3142 8259 z" stroke-linecap="round"/>
      </g>
      <g transform="matrix(0.07 0 0 -0.07 -60.09 -49.65)">
        <path style="stroke: none; stroke-width: 1; stroke-dasharray: none; stroke-linecap: butt; stroke-dashoffset: 0; stroke-linejoin: miter; stroke-miterlimit: 4; fill: rgb(0,0,0); fill-rule: nonzero; opacity: 1;" vector-effect="non-scaling-stroke" transform=" translate(-3663.27, -8052.24)" d="M 3653 8097 C 3592 8023 3583 7975 3633 7994 C 3656 8003 3662 7999 3652 7983 C 3632 7950 3670 7954 3698 7988 C 3716 8010 3716 8018 3696 8025 C 3676 8032 3678 8043 3704 8073 C 3724 8095 3731 8121 3722 8136 C 3711 8154 3692 8143 3653 8097 z" stroke-linecap="round"/>
      </g>
      <g transform="matrix(0.07 0 0 -0.07 12.76 8.31)">
        <path style="stroke: none; stroke-width: 1; stroke-dasharray: none; stroke-linecap: butt; stroke-dashoffset: 0; stroke-linejoin: miter; stroke-miterlimit: 4; fill: rgb(0,0,0); fill-rule: nonzero; opacity: 1;" vector-effect="non-scaling-stroke" transform=" translate(-4755.93, -7182.78)" d="M 4840 7280 C 4840 7268 4830 7264 4818 7271 C 4802 7281 4803 7273 4819 7243 C 4840 7203 4838 7202 4791 7220 C 4761 7231 4740 7231 4740 7221 C 4740 7211 4756 7199 4775 7194 C 4806 7186 4806 7184 4776 7182 C 4758 7181 4729 7194 4711 7211 C 4694 7229 4680 7233 4680 7221 C 4680 7210 4668 7200 4653 7200 C 4607 7200 4521 7121 4533 7090 C 4542 7066 4551 7066 4592 7093 C 4618 7110 4635 7131 4630 7139 C 4625 7148 4642 7152 4667 7149 C 4725 7143 4980 7199 4980 7219 C 4980 7227 4967 7233 4950 7233 C 4934 7233 4920 7226 4920 7217 C 4920 7208 4911 7200 4900 7200 C 4889 7200 4880 7217 4880 7239 C 4880 7260 4871 7283 4860 7290 C 4849 7297 4840 7292 4840 7280 z" stroke-linecap="round"/>
      </g>
      <g transform="matrix(0.07 0 0 -0.07 44.73 40.96)">
        <path style="stroke: none; stroke-width: 1; stroke-dasharray: none; stroke-linecap: butt; stroke-dashoffset: 0; stroke-linejoin: miter; stroke-miterlimit: 4; fill: rgb(0,0,0); fill-rule: nonzero; opacity: 1;" vector-effect="non-scaling-stroke" transform=" translate(-5235.5, -6693.13)" d="M 5217 6773 C 5216 6760 5215 6732 5215 6711 C 5215 6673 5215 6673 5188 6710 C 5167 6738 5144 6724 5163 6695 C 5165 6692 5156 6668 5142 6640 C 5121 6597 5121 6594 5145 6624 C 5172 6657 5267 6668 5247 6636 C 5242 6627 5227 6625 5216 6633 C 5203 6641 5200 6637 5208 6623 C 5216 6610 5235 6600 5251 6600 C 5292 6600 5288 6699 5245 6733 C 5218 6754 5217 6759 5240 6755 C 5257 6752 5275 6744 5280 6738 C 5286 6731 5307 6731 5327 6739 C 5357 6749 5350 6756 5292 6774 C 5238 6791 5219 6790 5217 6773 z" stroke-linecap="round"/>
      </g>
      <g transform="matrix(0.07 0 0 -0.07 3.65 48.48)">
        <path style="stroke: none; stroke-width: 1; stroke-dasharray: none; stroke-linecap: butt; stroke-dashoffset: 0; stroke-linejoin: miter; stroke-miterlimit: 4; fill: rgb(0,0,0); fill-rule: nonzero; opacity: 1;" vector-effect="non-scaling-stroke" transform=" translate(-4619.23, -6580.23)" d="M 4654 6640 C 4662 6610 4657 6602 4636 6611 C 4620 6617 4594 6606 4578 6586 C 4552 6553 4553 6552 4588 6580 C 4625 6608 4626 6607 4612 6550 L 4598 6490 L 4639 6555 C 4684 6628 4689 6652 4662 6669 C 4652 6675 4648 6662 4654 6640 z" stroke-linecap="round"/>
      </g>
      <g transform="matrix(0.07 0 0 -0.07 13.43 51.53)">
        <path style="stroke: none; stroke-width: 1; stroke-dasharray: none; stroke-linecap: butt; stroke-dashoffset: 0; stroke-linejoin: miter; stroke-miterlimit: 4; fill: rgb(0,0,0); fill-rule: nonzero; opacity: 1;" vector-effect="non-scaling-stroke" transform=" translate(-4765.98, -6534.46)" d="M 4790 6620 C 4783 6598 4771 6583 4763 6588 C 4755 6593 4747 6573 4744 6544 C 4742 6515 4731 6483 4720 6472 C 4709 6461 4700 6438 4701 6421 C 4702 6379 4758 6479 4759 6525 C 4760 6544 4769 6560 4780 6560 C 4791 6560 4800 6574 4800 6591 C 4800 6608 4809 6617 4820 6610 C 4831 6603 4834 6611 4828 6629 C 4812 6670 4805 6668 4790 6620 z" stroke-linecap="round"/>
      </g>
      <g transform="matrix(0.07 0 0 -0.07 -18.13 57.05)">
        <path style="stroke: none; stroke-width: 1; stroke-dasharray: none; stroke-linecap: butt; stroke-dashoffset: 0; stroke-linejoin: miter; stroke-miterlimit: 4; fill: rgb(0,0,0); fill-rule: nonzero; opacity: 1;" vector-effect="non-scaling-stroke" transform=" translate(-4292.64, -6451.76)" d="M 4301 6481 C 4285 6471 4266 6467 4258 6471 C 4250 6476 4249 6462 4254 6439 C 4268 6389 4301 6397 4322 6456 C 4341 6506 4341 6506 4301 6481 z" stroke-linecap="round"/>
      </g>
      <g transform="matrix(0.07 0 0 -0.07 -41.78 84.44)">
        <path style="stroke: none; stroke-width: 1; stroke-dasharray: none; stroke-linecap: butt; stroke-dashoffset: 0; stroke-linejoin: miter; stroke-miterlimit: 4; fill: rgb(0,0,0); fill-rule: nonzero; opacity: 1;" vector-effect="non-scaling-stroke" transform=" translate(-3937.86, -6040.94)" d="M 3991 6197 C 3971 6162 3965 6140 3977 6148 C 3990 6156 4000 6154 4000 6143 C 4000 6133 3987 6119 3971 6113 C 3934 6099 3812 5860 3841 5860 C 3853 5860 3856 5850 3848 5837 C 3840 5823 3843 5819 3855 5827 C 3867 5834 3872 5860 3866 5885 C 3859 5918 3862 5923 3876 5903 C 3897 5873 3931 5906 3912 5937 C 3906 5947 3919 5971 3940 5990 C 3962 6010 3980 6043 3980 6063 C 3980 6083 3989 6100 4000 6100 C 4011 6100 4018 6120 4017 6145 C 4016 6170 4021 6206 4029 6225 C 4053 6281 4032 6265 3991 6197 z" stroke-linecap="round"/>
      </g>
      <g transform="matrix(0.07 0 0 -0.07 -30.58 77.26)">
        <path style="stroke: none; stroke-width: 1; stroke-dasharray: none; stroke-linecap: butt; stroke-dashoffset: 0; stroke-linejoin: miter; stroke-miterlimit: 4; fill: rgb(0,0,0); fill-rule: nonzero; opacity: 1;" vector-effect="non-scaling-stroke" transform=" translate(-4105.8, -6148.5)" d="M 4111 6180 C 4089 6131 4065 6076 4058 6058 C 4049 6038 4054 6027 4072 6027 C 4088 6027 4098 6038 4095 6052 C 4092 6066 4106 6090 4127 6105 C 4153 6124 4161 6152 4157 6201 L 4150 6270 L 4111 6180 z" stroke-linecap="round"/>
      </g>
      <g transform="matrix(0.07 0 0 -0.07 -42.82 121.12)">
        <path style="stroke: none; stroke-width: 1; stroke-dasharray: none; stroke-linecap: butt; stroke-dashoffset: 0; stroke-linejoin: miter; stroke-miterlimit: 4; fill: rgb(0,0,0); fill-rule: nonzero; opacity: 1;" vector-effect="non-scaling-stroke" transform=" translate(-3922.25, -5490.72)" d="M 4010 5960 C 4003 5938 3989 5920 3978 5920 C 3957 5920 3857 5713 3821 5598 C 3778 5457 3794 5294 3873 5090 C 3890 5046 3902 5007 3900 5003 C 3898 5000 3903 4991 3910 4983 C 3924 4970 3914 5036 3871 5259 C 3843 5397 3846 5538 3875 5558 C 3886 5565 3899 5605 3906 5647 C 3913 5690 3933 5741 3951 5761 C 3991 5805 4001 5865 3972 5885 C 3956 5895 3956 5899 3973 5900 C 3985 5900 4010 5923 4028 5950 C 4046 5978 4052 6000 4042 6000 C 4031 6000 4017 5982 4010 5960 z" stroke-linecap="round"/>
      </g>
      <g transform="matrix(0.07 0 0 -0.07 -51.37 103.19)">
        <path style="stroke: none; stroke-width: 1; stroke-dasharray: none; stroke-linecap: butt; stroke-dashoffset: 0; stroke-linejoin: miter; stroke-miterlimit: 4; fill: rgb(0,0,0); fill-rule: nonzero; opacity: 1;" vector-effect="non-scaling-stroke" transform=" translate(-3793.99, -5759.68)" d="M 3779 5767 C 3756 5708 3772 5675 3801 5721 C 3821 5752 3827 5820 3810 5820 C 3804 5820 3790 5796 3779 5767 z" stroke-linecap="round"/>
      </g>
      <g transform="matrix(0.07 0 0 -0.07 -52.97 133.57)">
        <path style="stroke: none; stroke-width: 1; stroke-dasharray: none; stroke-linecap: butt; stroke-dashoffset: 0; stroke-linejoin: miter; stroke-miterlimit: 4; fill: rgb(0,0,0); fill-rule: nonzero; opacity: 1;" vector-effect="non-scaling-stroke" transform=" translate(-3770.01, -5303.93)" d="M 3723 5597 C 3657 5492 3699 5208 3806 5024 C 3863 4928 3863 4952 3805 5120 C 3766 5235 3754 5313 3752 5455 C 3751 5557 3750 5640 3750 5640 C 3750 5640 3738 5621 3723 5597 z" stroke-linecap="round"/>
      </g>
      <g transform="matrix(0.07 0 0 -0.07 -69.65 158.96)">
        <path style="stroke: none; stroke-width: 1; stroke-dasharray: none; stroke-linecap: butt; stroke-dashoffset: 0; stroke-linejoin: miter; stroke-miterlimit: 4; fill: rgb(0,0,0); fill-rule: nonzero; opacity: 1;" vector-effect="non-scaling-stroke" transform=" translate(-3519.82, -4923.04)" d="M 3482 4974 C 3470 4962 3461 4925 3463 4891 C 3465 4844 3467 4840 3474 4875 C 3484 4925 3501 4931 3535 4897 C 3553 4879 3562 4881 3571 4906 C 3597 4974 3532 5024 3482 4974 z" stroke-linecap="round"/>
      </g>
      <g transform="matrix(0.07 0 0 -0.07 -13.55 169.5)">
        <path style="stroke: none; stroke-width: 1; stroke-dasharray: none; stroke-linecap: butt; stroke-dashoffset: 0; stroke-linejoin: miter; stroke-miterlimit: 4; fill: rgb(0,0,0); fill-rule: nonzero; opacity: 1;" vector-effect="non-scaling-stroke" transform=" translate(-4361.34, -4765)" d="M 4333 4806 C 4319 4764 4346 4680 4374 4680 C 4381 4680 4381 4686 4374 4693 C 4367 4700 4371 4723 4383 4745 C 4397 4771 4397 4780 4383 4772 C 4372 4765 4360 4780 4356 4805 L 4349 4850 L 4333 4806 z" stroke-linecap="round"/>
      </g>
      <g transform="matrix(0.07 0 0 -0.07 -14.48 197.36)">
        <path style="stroke: none; stroke-width: 1; stroke-dasharray: none; stroke-linecap: butt; stroke-dashoffset: 0; stroke-linejoin: miter; stroke-miterlimit: 4; fill: rgb(0,0,0); fill-rule: nonzero; opacity: 1;" vector-effect="non-scaling-stroke" transform=" translate(-4347.38, -4347.01)" d="M 4350 4625 C 4328 4609 4327 4597 4313 4323 C 4305 4167 4307 4157 4342 4166 C 4363 4172 4375 4168 4369 4158 C 4363 4148 4345 4140 4329 4140 C 4311 4140 4302 4122 4304 4092 C 4308 4052 4314 4048 4344 4067 C 4364 4080 4371 4093 4360 4097 C 4349 4100 4353 4116 4369 4132 C 4398 4161 4390 4229 4361 4210 C 4347 4202 4346 4245 4357 4516 C 4359 4567 4368 4597 4380 4590 C 4391 4583 4394 4591 4388 4609 C 4374 4645 4376 4644 4350 4625 z" stroke-linecap="round"/>
      </g>
      <g transform="matrix(0.07 0 0 -0.07 114.21 199.51)">
        <path style="stroke: none; stroke-width: 1; stroke-dasharray: none; stroke-linecap: butt; stroke-dashoffset: 0; stroke-linejoin: miter; stroke-miterlimit: 4; fill: rgb(0,0,0); fill-rule: nonzero; opacity: 1;" vector-effect="non-scaling-stroke" transform=" translate(-6277.75, -4314.88)" d="M 6300 4449 C 6300 4414 6292 4402 6275 4412 C 6261 4420 6256 4420 6263 4411 C 6271 4403 6256 4357 6230 4308 C 6204 4260 6192 4215 6202 4209 C 6212 4203 6220 4187 6220 4174 C 6220 4160 6212 4162 6200 4180 C 6184 4204 6181 4201 6180 4165 C 6180 4121 6182 4120 6230 4152 C 6258 4170 6280 4195 6280 4207 C 6280 4220 6271 4217 6260 4200 C 6248 4182 6240 4180 6240 4194 C 6240 4207 6249 4223 6260 4230 C 6272 4237 6275 4253 6267 4265 C 6258 4279 6265 4282 6287 4274 C 6305 4267 6320 4270 6320 4281 C 6320 4291 6311 4300 6300 4300 C 6288 4300 6290 4316 6305 4340 C 6319 4362 6342 4376 6358 4370 C 6381 4361 6381 4365 6360 4390 C 6346 4406 6343 4420 6353 4420 C 6362 4420 6357 4429 6340 4440 C 6313 4458 6313 4462 6340 4480 C 6366 4497 6365 4499 6335 4500 C 6311 4500 6300 4484 6300 4449 z" stroke-linecap="round"/>
      </g>
      <g transform="matrix(0.07 0 0 -0.07 -52.84 212.46)">
        <path style="stroke: none; stroke-width: 1; stroke-dasharray: none; stroke-linecap: butt; stroke-dashoffset: 0; stroke-linejoin: miter; stroke-miterlimit: 4; fill: rgb(0,0,0); fill-rule: nonzero; opacity: 1;" vector-effect="non-scaling-stroke" transform=" translate(-3772, -4120.61)" d="M 3733 4165 C 3713 4133 3738 4085 3781 4074 C 3830 4061 3830 4083 3783 4141 C 3760 4169 3741 4178 3733 4165 z" stroke-linecap="round"/>
      </g>
      <g transform="matrix(0.07 0 0 -0.07 -69.68 215.65)">
        <path style="stroke: none; stroke-width: 1; stroke-dasharray: none; stroke-linecap: butt; stroke-dashoffset: 0; stroke-linejoin: miter; stroke-miterlimit: 4; fill: rgb(0,0,0); fill-rule: nonzero; opacity: 1;" vector-effect="non-scaling-stroke" transform=" translate(-3519.28, -4072.64)" d="M 3500 4100 C 3483 4068 3482 4050 3498 4034 C 3510 4022 3520 4021 3520 4031 C 3520 4041 3529 4038 3538 4022 C 3550 4003 3554 4015 3551 4058 C 3544 4141 3529 4153 3500 4100 z" stroke-linecap="round"/>
      </g>
      <g transform="matrix(0.07 0 0 -0.07 -11.54 231.05)">
        <path style="stroke: none; stroke-width: 1; stroke-dasharray: none; stroke-linecap: butt; stroke-dashoffset: 0; stroke-linejoin: miter; stroke-miterlimit: 4; fill: rgb(0,0,0); fill-rule: nonzero; opacity: 1;" vector-effect="non-scaling-stroke" transform=" translate(-4391.47, -3841.69)" d="M 4353 3867 C 4303 3799 4352 3729 4410 3787 C 4428 3805 4437 3820 4429 3820 C 4421 3820 4426 3833 4439 3848 C 4458 3872 4455 3875 4421 3866 C 4389 3858 4382 3862 4392 3888 C 4410 3934 4396 3927 4353 3867 z" stroke-linecap="round"/>
      </g>
      <g transform="matrix(0.07 0 0 -0.07 107.88 250.3)">
        <path style="stroke: none; stroke-width: 1; stroke-dasharray: none; stroke-linecap: butt; stroke-dashoffset: 0; stroke-linejoin: miter; stroke-miterlimit: 4; fill: rgb(0,0,0); fill-rule: nonzero; opacity: 1;" vector-effect="non-scaling-stroke" transform=" translate(-6182.7, -3553.02)" d="M 6194 3647 C 6187 3640 6190 3619 6200 3600 C 6214 3574 6208 3551 6180 3514 C 6127 3447 6129 3429 6183 3483 C 6209 3509 6225 3549 6224 3585 C 6222 3649 6214 3667 6194 3647 z" stroke-linecap="round"/>
      </g>
      <g transform="matrix(0.07 0 0 -0.07 -55.87 255.32)">
        <path style="stroke: none; stroke-width: 1; stroke-dasharray: none; stroke-linecap: butt; stroke-dashoffset: 0; stroke-linejoin: miter; stroke-miterlimit: 4; fill: rgb(0,0,0); fill-rule: nonzero; opacity: 1;" vector-effect="non-scaling-stroke" transform=" translate(-3726.5, -3477.62)" d="M 3680 3493 C 3680 3473 3691 3466 3710 3473 C 3727 3479 3740 3474 3740 3462 C 3740 3450 3748 3440 3757 3440 C 3766 3440 3773 3454 3773 3470 C 3773 3487 3767 3500 3758 3500 C 3750 3500 3729 3505 3712 3512 C 3691 3520 3680 3513 3680 3493 z" stroke-linecap="round"/>
      </g>
      <g transform="matrix(0.07 0 0 -0.07 -76.74 257.46)">
        <path style="stroke: none; stroke-width: 1; stroke-dasharray: none; stroke-linecap: butt; stroke-dashoffset: 0; stroke-linejoin: miter; stroke-miterlimit: 4; fill: rgb(0,0,0); fill-rule: nonzero; opacity: 1;" vector-effect="non-scaling-stroke" transform=" translate(-3413.52, -3445.57)" d="M 3388 3451 C 3369 3410 3371 3402 3403 3394 C 3423 3388 3435 3392 3429 3401 C 3423 3411 3428 3437 3440 3460 C 3456 3490 3455 3500 3436 3500 C 3422 3500 3400 3478 3388 3451 z" stroke-linecap="round"/>
      </g>
    </g>
  </g>
</svg>